<svg width="320" height="70" viewBox="0 0 300 49" fill="none" xmlns="http://www.w3.org/2000/svg">
<g opacity="0.15">
<path d="M1 47.5481C3.20955 47.5481 13.7872 -2.16838 34.0415 11.8568C41.2005 14.8425 44.2933 16.8305 53.3157 4.4362C56.139 1.17453 63.457 -1.905 72.5899 5.92301C75.6587 5.16193 84.7051 40.6106 94.6175 32.2856C109.486 19.798 106.733 19.1043 115.544 13.5543C130.963 5.923 121.494 44.6125 136.519 21.1285C147.484 6.61675 150.919 27.4293 159.599 18.4105C172.365 5.1464 189.793 3.9522 194.704 9.3865C205.306 21.1188 203.104 25.9751 213.016 19.7313C232.841 17.65 231.189 28.0563 240 15.6355" stroke="#FF5668"/>
<path d="M33.4068 12.2962C13.1525 -1.729 3.20955 47.5481 1 47.5481H240V15.5688C235.044 29.4438 219.074 14.1813 205.306 22.5063C195.945 9.32502 189.887 3.148 178.873 7.3105C156.839 15.6379 159.599 22.2185 155.744 21.1285C148.585 19.1043 144.73 12.1668 136.519 21.1285C123.253 40.6106 130.412 15.6355 118.848 12.1668C98.4724 22.573 92.4147 41.3043 86.9078 30.8981C81.9516 27.3257 75.511 5.01171 72.4422 5.77278C63.3094 -2.05523 55.3796 2.51111 52.5562 5.77278C43.5339 18.1671 34.5116 12.2962 33.4068 12.2962Z" fill="url(#paint0_linear_6_166)"/>
</g>
<defs>
<linearGradient id="paint0_linear_6_166" x1="120.5" y1="-5.17635" x2="120.5" y2="47.5488" gradientUnits="userSpaceOnUse">
<stop stop-color="#FD818D" stop-opacity="0.85"/>
<stop offset="1" stop-color="#FD818D" stop-opacity="0"/>
</linearGradient>
</defs>
</svg>
