<svg width="320" height="100" viewBox="0 0 300 57" fill="none" xmlns="http://www.w3.org/2000/svg">
<g opacity="0.15">
<path d="M1 56C3.20955 56 13.1525 33.5442 33.4068 48.1745C34.5116 48.1745 43.5339 54.2987 52.5562 41.3696C55.3796 37.9672 63.3094 33.2039 72.4422 41.3696C75.511 40.5757 82.2379 35.3813 84.5948 20.9552C89.3821 12.3358 101.314 4.35156 110.741 41.3696C113.073 47.2671 121.494 52.9378 136.519 28.4405C139.465 25.6052 146.978 24.2896 153.459 34.9051C166.225 21.0686 192.347 -2.04498 194.704 16.1919C197.061 34.4287 213.117 26.9661 220.851 20.9552C225.761 13.4699 236.465 -0.956201 240 1.22133" stroke="#4AC49E"/>
<path d="M33.4068 48.1745C13.1525 33.5442 3.20955 56 1 56H240V1.22133C236.465 -0.956201 225.761 13.4699 220.851 20.9552C213.117 26.9661 197.061 34.4287 194.704 16.1919C192.347 -2.04498 166.225 21.0687 153.459 34.9051C146.978 24.2896 139.465 25.6052 136.519 28.4405C121.494 52.9378 113.073 47.2671 110.741 41.3696C101.314 4.35156 89.3821 12.3358 84.5948 20.9552C82.2379 35.3813 75.511 40.5757 72.4422 41.3696C63.3094 33.2039 55.3796 37.9672 52.5562 41.3696C43.5339 54.2987 34.5116 48.1745 33.4068 48.1745Z" fill="url(#paint0_linear_229_202)"/>
</g>
<defs>
<linearGradient id="paint0_linear_229_202" x1="120.5" y1="1" x2="120.5" y2="56" gradientUnits="userSpaceOnUse">
<stop stop-color="#4AC49E" stop-opacity="0.85"/>
<stop offset="1" stop-color="#4AC49E" stop-opacity="0"/>
</linearGradient>
</defs>
</svg>
